<?xml version="1.0" encoding="utf-8"?>
<!-- Generator: Adobe Illustrator 24.2.3, SVG Export Plug-In . SVG Version: 6.00 Build 0)  -->
<svg version="1.1" id="Capa_1" xmlns="http://www.w3.org/2000/svg" xmlns:xlink="http://www.w3.org/1999/xlink" x="0px" y="0px"
	 viewBox="0 0 384 98.3" enable-background="new 0 0 384 98.3" xml:space="preserve">
<g>
	<path fill="#FD0000" d="M216,42.6h36.3l8.3-19.2l-36.3,0L216,42.6z M228.2,29.4l23.2,0l-3.1,7.2h-23.2L228.2,29.4z M382,5.6
		c-2-2.8-5.2-4.4-8.7-4.4l-73,0c-3,0-5.9,1-8.2,2.8c-2-1.8-4.5-2.8-7.3-2.8l-73,0c-4.8,0-9.2,2.5-11.4,6.5c-3-4.1-7.9-6.5-13.3-6.5
		l-3.4,0h-27.3l-34.1,0L119.9,7c-2.5-3.6-6.5-5.7-10.9-5.7l-6.3,0h-27l-34.1,0L0,97h169.4l1.5-3.4c2.2,2.2,5.2,3.4,8.4,3.4h71.4
		c2.9,0,5.8-0.9,8-2.7c1.8,1.7,4.3,2.7,6.8,2.7h73.8c5.2,0,9.9-3,11.9-7.6l32.1-73.8C384.6,12.3,384.2,8.6,382,5.6z M9.1,91
		L45.6,7.3l21.1,0L30.2,91H9.1z M36,91L72.5,7.3l21.1,0L57.1,91H36z M63,91L99.5,7.3l9.6,0c5.4,0,9,5.8,6.7,11L84.1,91H63z M89.9,91
		l36.4-83.8l21.1,0L111,91H89.9z M117.1,91l36.4-83.8l21.1,0L138.2,91H117.1z M165.4,91h-21.1l36.4-83.8l6.3,0
		c7.1,0,12,6.3,9.5,12.2L165.4,91z M183.9,63.6l1.8-4.2c1.5,1.1,3.4,1.8,5.4,1.8l46.5,0l-3.3,7.5l-23.2,0l2.2-5.2L183.9,63.6z
		 M257,87.1c-1.1,2.4-3.6,4-6.4,4h-71.4c-1.9,0-3.7-0.9-4.8-2.4c-1.1-1.5-1.3-3.3-0.6-5l6.1-14.2l24.2,0l-2.2,5.2l36.3,0l8.5-19.5
		l-55.6,0c-2.2,0-3.7-2.4-2.8-4.6l17.1-39.3c1.1-2.5,3.6-4.1,6.5-4.1l73,0c1.6,0,3,0.7,3.8,1.9c0.9,1.2,1,2.7,0.5,4L257,87.1z
		 M273.7,63.6l14.9-34.2h51.3l-2.3,5.2h-38.2l-11.7,26.7h38.2l-3.3,7.5h-23.1l2.4-5.2H273.7z M377.7,13.2l-32.1,73.8
		c-1.1,2.4-3.6,4-6.4,4h-73.8c-3,0-4.9-3.2-3.7-6l6.7-15.5h24.1l-2.4,5.2h36.3l8.6-19.5h-38.3l6.5-14.7h38.3l7.5-17.2h-60.6l5.3-12
		c1.1-2.5,3.7-4.1,6.6-4.1l73,0h0c1.6,0,3,0.7,3.9,1.9C378.1,10.4,378.3,11.8,377.7,13.2z"/>
</g>
</svg>
